<svg width="44" height="44" viewBox="0 0 44 44" fill="none" xmlns="http://www.w3.org/2000/svg">
<circle cx="22" cy="22" r="22" fill="white"/>
<path d="M22.001 12C27.524 12 32.001 16.477 32.001 22C32.001 27.523 27.524 32 22.001 32C20.2338 32.0029 18.4976 31.5352 16.971 30.645L12.005 32L13.357 27.032C12.4661 25.5049 11.998 23.768 12.001 22C12.001 16.477 16.478 12 22.001 12ZM18.593 17.3L18.393 17.308C18.2635 17.3159 18.137 17.3499 18.021 17.408C17.9125 17.4694 17.8135 17.5462 17.727 17.636C17.607 17.749 17.539 17.847 17.466 17.942C17.0961 18.4229 16.897 19.0133 16.9 19.62C16.902 20.11 17.03 20.587 17.23 21.033C17.639 21.935 18.312 22.89 19.2 23.775C19.414 23.988 19.624 24.202 19.85 24.401C20.9534 25.3725 22.2682 26.073 23.69 26.447L24.258 26.534C24.443 26.544 24.628 26.53 24.814 26.521C25.1052 26.506 25.3896 26.4271 25.647 26.29C25.7779 26.2225 25.9057 26.1491 26.03 26.07C26.03 26.07 26.073 26.042 26.155 25.98C26.29 25.88 26.373 25.809 26.485 25.692C26.568 25.606 26.64 25.505 26.695 25.39C26.773 25.227 26.851 24.916 26.883 24.657C26.907 24.459 26.9 24.351 26.897 24.284C26.893 24.177 26.804 24.066 26.707 24.019L26.125 23.758C26.125 23.758 25.255 23.379 24.723 23.137C24.6673 23.1127 24.6077 23.0988 24.547 23.096C24.4786 23.089 24.4094 23.0967 24.3442 23.1186C24.279 23.1405 24.2193 23.1761 24.169 23.223C24.164 23.221 24.097 23.278 23.374 24.154C23.3325 24.2098 23.2753 24.2519 23.2098 24.2751C23.1443 24.2982 23.0733 24.3013 23.006 24.284C22.9408 24.2665 22.877 24.2445 22.815 24.218C22.691 24.166 22.648 24.146 22.563 24.11C21.9891 23.8595 21.4577 23.5211 20.988 23.107C20.862 22.997 20.745 22.877 20.625 22.761C20.2316 22.3842 19.8887 21.958 19.605 21.493L19.546 21.398C19.5036 21.3342 19.4694 21.2653 19.444 21.193C19.406 21.046 19.505 20.928 19.505 20.928C19.505 20.928 19.748 20.662 19.861 20.518C19.971 20.378 20.064 20.242 20.124 20.145C20.242 19.955 20.279 19.76 20.217 19.609C19.937 18.925 19.647 18.244 19.349 17.568C19.29 17.434 19.115 17.338 18.956 17.319C18.902 17.313 18.848 17.307 18.794 17.303C18.6597 17.2963 18.5251 17.2977 18.391 17.307L18.593 17.3Z" fill="#69AB40"/>
</svg>
